<svg width="597" height="537" viewBox="0 0 597 537" fill="none" xmlns="http://www.w3.org/2000/svg">
<g filter="url(#filter0_d_5_238)">
<rect x="11.8486" y="126.945" width="165.773" height="43.3438" rx="21.6719" fill="white"/>
<g clip-path="url(#clip0_5_238)">
<path d="M53.7117 144.212L46.3674 136.868C45.8802 136.39 45.2252 136.123 44.543 136.123C43.8608 136.123 43.2058 136.39 42.7187 136.868L32.4189 147.147C32.3218 147.244 32.2673 147.377 32.2673 147.514C32.2673 147.652 32.3218 147.784 32.4189 147.882L32.7838 148.252L30.214 150.816C29.7286 151.305 29.4562 151.965 29.4562 152.654C29.4562 153.342 29.7286 154.003 30.214 154.491L36.0884 160.366C36.5756 160.851 37.2352 161.125 37.9232 161.127C39.3358 161.127 39.7841 160.339 42.3277 157.796C42.6405 158.109 42.7812 158.317 43.0627 158.317C43.3441 158.317 42.4007 159.198 53.7117 147.892C54.1987 147.404 54.4721 146.742 54.4721 146.052C54.4721 145.362 54.1987 144.701 53.7117 144.212ZM39.023 159.631C38.7303 159.92 38.3351 160.083 37.9232 160.083C37.5114 160.083 37.1162 159.92 36.8234 159.631L30.949 153.756C30.6593 153.463 30.4969 153.068 30.4969 152.656C30.4969 152.245 30.6593 151.849 30.949 151.557L33.5187 148.987L41.5928 157.061L39.023 159.631ZM43.0627 157.056L33.5239 147.517L34.2537 146.782L43.7976 156.326L43.0627 157.056ZM44.5326 155.591L34.9886 146.047L43.4328 137.603C43.7255 137.313 44.1207 137.151 44.5326 137.151C44.9444 137.151 45.3396 137.313 45.6324 137.603C53.6126 145.588 53.451 145.161 53.451 146.047C53.451 146.933 53.5553 146.563 44.5326 155.591Z" fill="black"/>
<path d="M46.0025 140.172C45.9049 140.075 45.7728 140.021 45.6351 140.021C45.4974 140.021 45.3652 140.075 45.2676 140.172L38.6582 146.782C38.5611 146.879 38.5067 147.012 38.5067 147.149C38.5067 147.287 38.5611 147.419 38.6582 147.517L43.0627 151.921C43.1604 152.018 43.2925 152.073 43.4302 152.073C43.5679 152.073 43.7 152.018 43.7977 151.921C51.0117 144.712 50.5738 145.255 50.5738 144.947C50.5738 144.639 50.7667 144.937 46.0025 140.172ZM43.4328 150.816L39.7841 147.168L45.6116 141.277L49.2603 144.926L43.4328 150.816Z" fill="black"/>
</g>
<path d="M65.9188 157.803C65.563 157.803 65.2872 157.705 65.0915 157.51C64.9136 157.296 64.8246 157.012 64.8246 156.656V139.923C64.8246 139.549 64.9225 139.273 65.1182 139.095C65.3139 138.9 65.5897 138.802 65.9455 138.802H72.2705C74.2809 138.802 75.8288 139.273 76.9141 140.216C77.9994 141.159 78.5421 142.502 78.5421 144.246C78.5421 145.349 78.293 146.31 77.7948 147.128C77.3144 147.929 76.6028 148.543 75.6598 148.97C74.7168 149.379 73.5871 149.583 72.2705 149.583L72.5373 149.237H73.0711C73.765 149.237 74.3699 149.414 74.8859 149.77C75.4018 150.126 75.8733 150.695 76.3003 151.478L78.8623 156.255C79.0046 156.504 79.0669 156.754 79.0491 157.003C79.0491 157.234 78.9691 157.43 78.8089 157.59C78.6488 157.732 78.4175 157.803 78.1151 157.803C77.8126 157.803 77.5635 157.732 77.3678 157.59C77.1721 157.447 77.0031 157.243 76.8607 156.976L73.9518 151.585C73.5426 150.82 73.0711 150.313 72.5373 150.064C72.0036 149.797 71.3008 149.664 70.429 149.664H67.013V156.656C67.013 157.012 66.924 157.296 66.7461 157.51C66.5682 157.705 66.2924 157.803 65.9188 157.803ZM67.013 147.929H71.9502C73.4091 147.929 74.5122 147.626 75.2595 147.021C76.0067 146.399 76.3804 145.474 76.3804 144.246C76.3804 143.054 76.0067 142.155 75.2595 141.551C74.5122 140.928 73.4091 140.616 71.9502 140.616H67.013V147.929ZM87.9415 157.857C86.5716 157.857 85.3884 157.59 84.3921 157.056C83.4135 156.504 82.6485 155.731 82.0969 154.734C81.5632 153.738 81.2963 152.546 81.2963 151.158C81.2963 149.806 81.5632 148.632 82.0969 147.635C82.6307 146.621 83.3601 145.829 84.2853 145.26C85.2283 144.691 86.3136 144.406 87.5412 144.406C88.413 144.406 89.1958 144.557 89.8897 144.86C90.5836 145.144 91.1707 145.563 91.6511 146.114C92.1493 146.666 92.5229 147.333 92.772 148.116C93.0389 148.898 93.1723 149.779 93.1723 150.758C93.1723 151.042 93.0922 151.256 92.9321 151.398C92.772 151.523 92.5407 151.585 92.2382 151.585H82.9509V150.171H91.7312L91.3042 150.518C91.3042 149.557 91.1618 148.747 90.8772 148.089C90.5925 147.413 90.1744 146.897 89.6228 146.541C89.0891 146.185 88.413 146.007 87.5946 146.007C86.6872 146.007 85.9133 146.221 85.2728 146.648C84.6501 147.057 84.1786 147.635 83.8583 148.383C83.5381 149.112 83.3779 149.966 83.3779 150.945V151.105C83.3779 152.742 83.7694 153.987 84.5522 154.841C85.3528 155.695 86.4826 156.122 87.9415 156.122C88.5464 156.122 89.1425 156.042 89.7296 155.882C90.3345 155.722 90.9216 155.455 91.491 155.081C91.7401 154.921 91.9625 154.85 92.1582 154.868C92.3717 154.868 92.5407 154.93 92.6652 155.054C92.7898 155.161 92.8698 155.304 92.9054 155.481C92.9588 155.642 92.941 155.819 92.852 156.015C92.7809 156.211 92.6297 156.38 92.3984 156.522C91.8112 156.949 91.1174 157.278 90.3167 157.51C89.5161 157.741 88.7244 157.857 87.9415 157.857ZM97.4217 157.803C97.0658 157.803 96.799 157.705 96.621 157.51C96.4431 157.314 96.3542 157.038 96.3542 156.682V145.554C96.3542 145.198 96.4431 144.931 96.621 144.753C96.799 144.557 97.0569 144.459 97.395 144.459C97.733 144.459 97.991 144.557 98.1689 144.753C98.3646 144.931 98.4625 145.198 98.4625 145.554V147.902L98.1689 147.529C98.507 146.532 99.0496 145.767 99.7969 145.233C100.562 144.682 101.469 144.406 102.519 144.406C103.622 144.406 104.512 144.673 105.188 145.207C105.882 145.723 106.344 146.532 106.576 147.635H106.175C106.495 146.639 107.065 145.856 107.883 145.287C108.719 144.7 109.689 144.406 110.792 144.406C111.771 144.406 112.571 144.593 113.194 144.967C113.835 145.34 114.315 145.909 114.635 146.675C114.955 147.422 115.116 148.374 115.116 149.53V156.682C115.116 157.038 115.018 157.314 114.822 157.51C114.644 157.705 114.377 157.803 114.021 157.803C113.683 157.803 113.416 157.705 113.221 157.51C113.043 157.314 112.954 157.038 112.954 156.682V149.637C112.954 148.445 112.749 147.573 112.34 147.021C111.931 146.452 111.237 146.167 110.258 146.167C109.191 146.167 108.346 146.541 107.723 147.288C107.118 148.018 106.816 149.014 106.816 150.277V156.682C106.816 157.038 106.718 157.314 106.522 157.51C106.344 157.705 106.077 157.803 105.722 157.803C105.383 157.803 105.117 157.705 104.921 157.51C104.743 157.314 104.654 157.038 104.654 156.682V149.637C104.654 148.445 104.441 147.573 104.014 147.021C103.604 146.452 102.919 146.167 101.959 146.167C100.891 146.167 100.046 146.541 99.4232 147.288C98.8183 148.018 98.5159 149.014 98.5159 150.277V156.682C98.5159 157.43 98.1511 157.803 97.4217 157.803ZM124.548 157.857C123.285 157.857 122.191 157.581 121.266 157.029C120.34 156.478 119.62 155.704 119.104 154.708C118.606 153.693 118.357 152.501 118.357 151.131C118.357 150.099 118.499 149.174 118.784 148.356C119.068 147.52 119.486 146.808 120.038 146.221C120.59 145.634 121.239 145.189 121.986 144.886C122.751 144.566 123.605 144.406 124.548 144.406C125.811 144.406 126.906 144.682 127.831 145.233C128.756 145.785 129.468 146.568 129.966 147.582C130.482 148.578 130.74 149.761 130.74 151.131C130.74 152.163 130.597 153.088 130.313 153.907C130.028 154.725 129.61 155.437 129.058 156.042C128.507 156.629 127.849 157.083 127.084 157.403C126.336 157.705 125.491 157.857 124.548 157.857ZM124.548 156.122C125.349 156.122 126.052 155.926 126.657 155.535C127.261 155.143 127.724 154.574 128.044 153.827C128.382 153.08 128.551 152.181 128.551 151.131C128.551 149.512 128.187 148.276 127.457 147.422C126.745 146.568 125.776 146.141 124.548 146.141C123.73 146.141 123.018 146.336 122.413 146.728C121.826 147.102 121.363 147.662 121.025 148.409C120.705 149.139 120.545 150.046 120.545 151.131C120.545 152.733 120.91 153.969 121.639 154.841C122.369 155.695 123.338 156.122 124.548 156.122ZM138.635 157.803C138.332 157.803 138.065 157.723 137.834 157.563C137.603 157.385 137.407 157.118 137.247 156.762L132.63 145.981C132.505 145.714 132.461 145.465 132.497 145.233C132.532 145.002 132.639 144.815 132.817 144.673C132.995 144.531 133.244 144.459 133.564 144.459C133.849 144.459 134.071 144.522 134.231 144.646C134.391 144.771 134.534 144.993 134.658 145.313L139.035 156.015H138.314L142.771 145.313C142.896 144.993 143.038 144.771 143.198 144.646C143.358 144.522 143.59 144.459 143.892 144.459C144.177 144.459 144.39 144.531 144.533 144.673C144.693 144.815 144.782 145.002 144.8 145.233C144.835 145.447 144.8 145.687 144.693 145.954L140.022 156.762C139.898 157.118 139.711 157.385 139.462 157.563C139.231 157.723 138.955 157.803 138.635 157.803ZM153.201 157.857C151.831 157.857 150.648 157.59 149.652 157.056C148.673 156.504 147.908 155.731 147.357 154.734C146.823 153.738 146.556 152.546 146.556 151.158C146.556 149.806 146.823 148.632 147.357 147.635C147.89 146.621 148.62 145.829 149.545 145.26C150.488 144.691 151.573 144.406 152.801 144.406C153.673 144.406 154.455 144.557 155.149 144.86C155.843 145.144 156.43 145.563 156.911 146.114C157.409 146.666 157.782 147.333 158.032 148.116C158.298 148.898 158.432 149.779 158.432 150.758C158.432 151.042 158.352 151.256 158.192 151.398C158.032 151.523 157.8 151.585 157.498 151.585H148.211V150.171H156.991L156.564 150.518C156.564 149.557 156.421 148.747 156.137 148.089C155.852 147.413 155.434 146.897 154.882 146.541C154.349 146.185 153.673 146.007 152.854 146.007C151.947 146.007 151.173 146.221 150.532 146.648C149.91 147.057 149.438 147.635 149.118 148.383C148.798 149.112 148.638 149.966 148.638 150.945V151.105C148.638 152.742 149.029 153.987 149.812 154.841C150.612 155.695 151.742 156.122 153.201 156.122C153.806 156.122 154.402 156.042 154.989 155.882C155.594 155.722 156.181 155.455 156.751 155.081C157 154.921 157.222 154.85 157.418 154.868C157.631 154.868 157.8 154.93 157.925 155.054C158.049 155.161 158.129 155.304 158.165 155.481C158.218 155.642 158.201 155.819 158.112 156.015C158.04 156.211 157.889 156.38 157.658 156.522C157.071 156.949 156.377 157.278 155.576 157.51C154.776 157.741 153.984 157.857 153.201 157.857Z" fill="#333333"/>
</g>
<g filter="url(#filter1_d_5_238)">
<rect x="172" y="8" width="203.05" height="43.3438" rx="21.6719" fill="white"/>
<path d="M207.617 30.5632C206.662 27.3625 203.398 24.1255 201.316 24.1255C204.562 22.8798 206.544 20.2247 207.608 17.0513C208.672 20.2338 210.654 22.8707 213.9 24.1255C211.818 24.1255 208.572 27.3625 207.617 30.5632Z" fill="#333333"/>
<path d="M194.142 32.6729C193.451 30.3633 191.105 28.0355 189.604 28.0355C191.941 27.1262 193.369 25.2167 194.142 22.9344C194.905 25.2258 196.333 27.1353 198.67 28.0264C197.17 28.0264 194.824 30.3724 194.142 32.6729Z" fill="#333333"/>
<path d="M200.406 42.2928C199.933 40.6924 198.306 39.0648 197.26 39.0648C198.019 38.7528 198.696 38.2722 199.241 37.6593C199.786 37.0464 200.185 36.3175 200.406 35.5277C200.943 37.119 201.934 38.4465 203.552 39.0739C202.516 39.0739 200.888 40.6924 200.406 42.2928Z" fill="#333333"/>
<path d="M223.553 38.8588C223.268 38.8588 223.037 38.7965 222.859 38.672C222.699 38.5297 222.601 38.3517 222.566 38.1382C222.548 37.907 222.601 37.649 222.726 37.3643L230.065 20.6579C230.225 20.302 230.412 20.0529 230.625 19.9106C230.857 19.7505 231.106 19.6704 231.373 19.6704C231.639 19.6704 231.88 19.7505 232.093 19.9106C232.324 20.0529 232.511 20.302 232.654 20.6579L240.019 37.3643C240.162 37.649 240.215 37.907 240.179 38.1382C240.162 38.3695 240.073 38.5475 239.913 38.672C239.752 38.7965 239.53 38.8588 239.245 38.8588C238.925 38.8588 238.667 38.7787 238.471 38.6186C238.276 38.4407 238.116 38.1916 237.991 37.8714L236.016 33.3078L237.084 33.8682H225.608L226.702 33.3078L224.754 37.8714C224.594 38.2094 224.425 38.4585 224.247 38.6186C224.069 38.7787 223.838 38.8588 223.553 38.8588ZM231.346 22.4192L227.049 32.5338L226.409 32.0268H236.283L235.696 32.5338L231.399 22.4192H231.346ZM247.909 38.9122C246.753 38.9122 245.738 38.6364 244.867 38.0849C244.013 37.5333 243.345 36.7594 242.865 35.763C242.402 34.7489 242.171 33.5569 242.171 32.1869C242.171 30.7991 242.402 29.6071 242.865 28.6108C243.345 27.5966 244.013 26.8227 244.867 26.2889C245.738 25.7374 246.753 25.4616 247.909 25.4616C249.083 25.4616 250.089 25.7552 250.925 26.3423C251.761 26.9294 252.321 27.7212 252.606 28.7175H252.312V20.7646C252.312 20.4088 252.401 20.1419 252.579 19.964C252.775 19.7683 253.051 19.6704 253.407 19.6704C253.745 19.6704 254.003 19.7683 254.181 19.964C254.376 20.1419 254.474 20.4088 254.474 20.7646V37.7379C254.474 38.0938 254.385 38.3695 254.207 38.5652C254.029 38.761 253.763 38.8588 253.407 38.8588C253.069 38.8588 252.802 38.761 252.606 38.5652C252.428 38.3695 252.339 38.0938 252.339 37.7379V35.2026L252.633 35.5762C252.348 36.5904 251.779 37.3999 250.925 38.0048C250.089 38.6097 249.083 38.9122 247.909 38.9122ZM248.363 37.1775C249.163 37.1775 249.866 36.9818 250.471 36.5904C251.076 36.1989 251.539 35.6296 251.859 34.8824C252.197 34.1351 252.366 33.2366 252.366 32.1869C252.366 30.5679 252.001 29.3313 251.272 28.4773C250.56 27.6233 249.59 27.1963 248.363 27.1963C247.544 27.1963 246.833 27.392 246.228 27.7834C245.641 28.1571 245.178 28.7175 244.84 29.4648C244.52 30.1942 244.36 31.1016 244.36 32.1869C244.36 33.7882 244.724 35.0247 245.454 35.8965C246.183 36.7505 247.153 37.1775 248.363 37.1775ZM263.468 38.9122C262.312 38.9122 261.298 38.6364 260.426 38.0849C259.572 37.5333 258.905 36.7594 258.424 35.763C257.962 34.7489 257.73 33.5569 257.73 32.1869C257.73 30.7991 257.962 29.6071 258.424 28.6108C258.905 27.5966 259.572 26.8227 260.426 26.2889C261.298 25.7374 262.312 25.4616 263.468 25.4616C264.642 25.4616 265.648 25.7552 266.484 26.3423C267.32 26.9294 267.88 27.7212 268.165 28.7175H267.872V20.7646C267.872 20.4088 267.961 20.1419 268.138 19.964C268.334 19.7683 268.61 19.6704 268.966 19.6704C269.304 19.6704 269.562 19.7683 269.74 19.964C269.935 20.1419 270.033 20.4088 270.033 20.7646V37.7379C270.033 38.0938 269.944 38.3695 269.766 38.5652C269.588 38.761 269.322 38.8588 268.966 38.8588C268.628 38.8588 268.361 38.761 268.165 38.5652C267.987 38.3695 267.898 38.0938 267.898 37.7379V35.2026L268.192 35.5762C267.907 36.5904 267.338 37.3999 266.484 38.0048C265.648 38.6097 264.642 38.9122 263.468 38.9122ZM263.922 37.1775C264.722 37.1775 265.425 36.9818 266.03 36.5904C266.635 36.1989 267.098 35.6296 267.418 34.8824C267.756 34.1351 267.925 33.2366 267.925 32.1869C267.925 30.5679 267.56 29.3313 266.831 28.4773C266.119 27.6233 265.149 27.1963 263.922 27.1963C263.103 27.1963 262.392 27.392 261.787 27.7834C261.2 28.1571 260.737 28.7175 260.399 29.4648C260.079 30.1942 259.919 31.1016 259.919 32.1869C259.919 33.7882 260.283 35.0247 261.013 35.8965C261.742 36.7505 262.712 37.1775 263.922 37.1775ZM286.468 38.9122C285.169 38.9122 284.048 38.6275 283.105 38.0582C282.162 37.4888 281.433 36.6971 280.917 35.683C280.419 34.6511 280.17 33.459 280.17 32.1068C280.17 31.0749 280.312 30.1497 280.597 29.3313C280.881 28.5129 281.3 27.819 281.851 27.2497C282.403 26.6626 283.061 26.2178 283.826 25.9153C284.609 25.6129 285.49 25.4616 286.468 25.4616C287.109 25.4616 287.776 25.5595 288.47 25.7552C289.164 25.9509 289.795 26.2889 290.364 26.7693C290.542 26.8939 290.658 27.0451 290.711 27.223C290.765 27.4009 290.765 27.5788 290.711 27.7568C290.658 27.9169 290.569 28.0592 290.445 28.1838C290.32 28.2905 290.16 28.3528 289.964 28.3706C289.786 28.3884 289.599 28.3261 289.404 28.1838C288.941 27.8279 288.47 27.5788 287.989 27.4365C287.509 27.2942 287.046 27.223 286.601 27.223C285.908 27.223 285.303 27.3387 284.787 27.5699C284.271 27.7834 283.835 28.0948 283.479 28.504C283.123 28.9132 282.847 29.4203 282.652 30.0252C282.474 30.6301 282.385 31.3329 282.385 32.1335C282.385 33.6814 282.75 34.909 283.479 35.8164C284.209 36.706 285.249 37.1508 286.601 37.1508C287.046 37.1508 287.5 37.0796 287.963 36.9373C288.443 36.795 288.923 36.5459 289.404 36.19C289.599 36.0477 289.786 35.9854 289.964 36.0032C290.142 36.021 290.293 36.0922 290.418 36.2167C290.542 36.3235 290.622 36.4658 290.658 36.6437C290.711 36.8217 290.711 36.9996 290.658 37.1775C290.605 37.3376 290.489 37.4799 290.311 37.6045C289.742 38.0671 289.119 38.4051 288.443 38.6186C287.767 38.8143 287.109 38.9122 286.468 38.9122ZM297.274 38.9122C295.993 38.9122 295.014 38.5208 294.338 37.7379C293.662 36.9551 293.324 35.8342 293.324 34.3753V20.7646C293.324 20.4088 293.413 20.1419 293.591 19.964C293.769 19.7683 294.036 19.6704 294.391 19.6704C294.729 19.6704 294.996 19.7683 295.192 19.964C295.388 20.1419 295.486 20.4088 295.486 20.7646V34.2152C295.486 35.1759 295.672 35.8965 296.046 36.3769C296.437 36.8394 297.007 37.0707 297.754 37.0707C297.914 37.0707 298.056 37.0618 298.181 37.0441C298.306 37.0263 298.43 37.0174 298.555 37.0174C298.75 36.9996 298.884 37.0441 298.955 37.1508C299.044 37.2576 299.088 37.4711 299.088 37.7913C299.088 38.1116 299.017 38.3517 298.875 38.5119C298.733 38.672 298.501 38.7787 298.181 38.8321C298.039 38.8499 297.887 38.8677 297.727 38.8855C297.567 38.9033 297.416 38.9122 297.274 38.9122ZM306.481 38.9122C305.218 38.9122 304.124 38.6364 303.199 38.0849C302.274 37.5333 301.553 36.7594 301.037 35.763C300.539 34.7489 300.29 33.5569 300.29 32.1869C300.29 31.155 300.432 30.2298 300.717 29.4114C301.001 28.5752 301.42 27.8635 301.971 27.2764C302.523 26.6893 303.172 26.2445 303.919 25.942C304.684 25.6217 305.538 25.4616 306.481 25.4616C307.744 25.4616 308.839 25.7374 309.764 26.2889C310.689 26.8405 311.401 27.6233 311.899 28.6375C312.415 29.6338 312.673 30.8169 312.673 32.1869C312.673 33.2188 312.53 34.144 312.246 34.9624C311.961 35.7808 311.543 36.4925 310.991 37.0974C310.44 37.6846 309.782 38.1382 309.017 38.4585C308.269 38.761 307.424 38.9122 306.481 38.9122ZM306.481 37.1775C307.282 37.1775 307.985 36.9818 308.59 36.5904C309.195 36.1989 309.657 35.6296 309.977 34.8824C310.315 34.1351 310.484 33.2366 310.484 32.1869C310.484 30.5679 310.12 29.3313 309.39 28.4773C308.679 27.6233 307.709 27.1963 306.481 27.1963C305.663 27.1963 304.951 27.392 304.346 27.7834C303.759 28.1571 303.297 28.7175 302.959 29.4648C302.638 30.1942 302.478 31.1016 302.478 32.1869C302.478 33.7882 302.843 35.0247 303.572 35.8965C304.302 36.7505 305.271 37.1775 306.481 37.1775ZM320.51 38.9122C319.46 38.9122 318.588 38.7254 317.895 38.3517C317.219 37.9603 316.703 37.3821 316.347 36.617C316.009 35.852 315.84 34.9001 315.84 33.7615V26.6092C315.84 26.2356 315.929 25.9598 316.107 25.7819C316.302 25.604 316.569 25.515 316.907 25.515C317.263 25.515 317.53 25.604 317.708 25.7819C317.904 25.9598 318.001 26.2356 318.001 26.6092V33.7348C318.001 34.8735 318.233 35.7275 318.695 36.2968C319.176 36.8483 319.923 37.1241 320.937 37.1241C322.04 37.1241 322.939 36.7505 323.632 36.0032C324.326 35.256 324.673 34.2774 324.673 33.0676V26.6092C324.673 26.2356 324.762 25.9598 324.94 25.7819C325.136 25.604 325.412 25.515 325.767 25.515C326.105 25.515 326.363 25.604 326.541 25.7819C326.737 25.9598 326.835 26.2356 326.835 26.6092V37.7379C326.835 38.4852 326.488 38.8588 325.794 38.8588C325.456 38.8588 325.189 38.761 324.994 38.5652C324.816 38.3695 324.727 38.0938 324.727 37.7379V35.3094L325.074 35.683C324.718 36.7327 324.131 37.5333 323.312 38.0849C322.512 38.6364 321.577 38.9122 320.51 38.9122ZM335.817 38.9122C334.66 38.9122 333.646 38.6364 332.774 38.0849C331.92 37.5333 331.253 36.7594 330.773 35.763C330.31 34.7489 330.079 33.5569 330.079 32.1869C330.079 30.7991 330.31 29.6071 330.773 28.6108C331.253 27.5966 331.92 26.8227 332.774 26.2889C333.646 25.7374 334.66 25.4616 335.817 25.4616C336.991 25.4616 337.996 25.7552 338.832 26.3423C339.669 26.9294 340.229 27.7212 340.514 28.7175H340.22V20.7646C340.22 20.4088 340.309 20.1419 340.487 19.964C340.683 19.7683 340.958 19.6704 341.314 19.6704C341.652 19.6704 341.91 19.7683 342.088 19.964C342.284 20.1419 342.382 20.4088 342.382 20.7646V37.7379C342.382 38.0938 342.293 38.3695 342.115 38.5652C341.937 38.761 341.67 38.8588 341.314 38.8588C340.976 38.8588 340.709 38.761 340.514 38.5652C340.336 38.3695 340.247 38.0938 340.247 37.7379V35.2026L340.54 35.5762C340.256 36.5904 339.686 37.3999 338.832 38.0048C337.996 38.6097 336.991 38.9122 335.817 38.9122ZM336.27 37.1775C337.071 37.1775 337.774 36.9818 338.379 36.5904C338.984 36.1989 339.446 35.6296 339.766 34.8824C340.104 34.1351 340.273 33.2366 340.273 32.1869C340.273 30.5679 339.909 29.3313 339.179 28.4773C338.468 27.6233 337.498 27.1963 336.27 27.1963C335.452 27.1963 334.74 27.392 334.135 27.7834C333.548 28.1571 333.086 28.7175 332.748 29.4648C332.427 30.1942 332.267 31.1016 332.267 32.1869C332.267 33.7882 332.632 35.0247 333.361 35.8965C334.091 36.7505 335.06 37.1775 336.27 37.1775ZM350.815 38.9122C350.015 38.9122 349.205 38.8143 348.387 38.6186C347.586 38.4229 346.839 38.0849 346.145 37.6045C345.967 37.4799 345.842 37.3376 345.771 37.1775C345.7 36.9996 345.673 36.8306 345.691 36.6704C345.727 36.4925 345.798 36.3413 345.905 36.2167C346.029 36.0922 346.172 36.021 346.332 36.0032C346.51 35.9677 346.705 36.0032 346.919 36.11C347.613 36.537 348.28 36.8394 348.92 37.0174C349.579 37.1775 350.228 37.2576 350.869 37.2576C351.883 37.2576 352.648 37.0707 353.164 36.6971C353.68 36.3235 353.938 35.8164 353.938 35.1759C353.938 34.6777 353.769 34.2863 353.431 34.0017C353.093 33.6992 352.559 33.4679 351.829 33.3078L349.401 32.774C348.28 32.5427 347.444 32.1424 346.892 31.5731C346.358 31.0038 346.092 30.2654 346.092 29.358C346.092 28.5574 346.296 27.8724 346.705 27.3031C347.132 26.7159 347.728 26.2623 348.493 25.942C349.258 25.6217 350.148 25.4616 351.162 25.4616C351.945 25.4616 352.683 25.5684 353.377 25.7819C354.089 25.9776 354.729 26.2978 355.299 26.7426C355.477 26.8672 355.592 27.0184 355.646 27.1963C355.717 27.3564 355.726 27.5255 355.672 27.7034C355.637 27.8635 355.557 28.0058 355.432 28.1304C355.308 28.2371 355.156 28.2994 354.979 28.3172C354.801 28.335 354.614 28.2816 354.418 28.1571C353.884 27.8012 353.342 27.5433 352.79 27.3831C352.239 27.2052 351.696 27.1163 351.162 27.1163C350.166 27.1163 349.41 27.312 348.894 27.7034C348.378 28.0948 348.12 28.6108 348.12 29.2513C348.12 29.7494 348.28 30.1586 348.6 30.4789C348.92 30.7991 349.419 31.0304 350.095 31.1728L352.523 31.6798C353.68 31.9289 354.543 32.3292 355.112 32.8808C355.699 33.4145 355.993 34.144 355.993 35.0692C355.993 36.2434 355.521 37.1775 354.578 37.8714C353.635 38.5652 352.381 38.9122 350.815 38.9122Z" fill="#333333"/>
</g>
<g filter="url(#filter2_d_5_238)">
<rect x="254" y="478" width="230.949" height="43.3438" rx="21.6719" fill="white"/>
<path d="M281.202 510.02H271.604L271.628 509.557C271.768 506.872 272.37 504.636 273.534 502.948C274.636 501.351 276.228 500.254 278.391 499.742L276.879 494.827L276.864 494.756C276.798 494.283 276.895 493.866 277.115 493.526C277.271 493.284 277.487 493.085 277.749 492.936C277.998 492.794 278.287 492.699 278.605 492.655C279.296 492.56 280.132 492.713 280.957 493.181C281.817 492.702 282.761 492.553 283.556 492.662C283.926 492.713 284.269 492.82 284.56 492.977C284.871 493.143 285.126 493.366 285.301 493.637C285.506 493.956 285.599 494.333 285.54 494.756L285.525 494.827L284.013 499.742C286.176 500.254 287.768 501.351 288.87 502.948C290.034 504.636 290.636 506.872 290.776 509.557L290.8 510.02H281.202Z" fill="#424242"/>
<path d="M278.749 489.324V493.161H277.868V489.324H278.749Z" fill="#424242"/>
<path d="M284.536 489.324V493.161H283.655V489.324H284.536Z" fill="#424242"/>
<path d="M309.164 508.912C307.314 508.912 305.731 508.521 304.414 507.738C303.097 506.955 302.083 505.843 301.372 504.402C300.678 502.961 300.331 501.244 300.331 499.251C300.331 497.757 300.526 496.422 300.918 495.248C301.327 494.056 301.905 493.051 302.653 492.232C303.418 491.396 304.352 490.756 305.455 490.311C306.558 489.848 307.794 489.617 309.164 489.617C310.267 489.617 311.317 489.777 312.313 490.097C313.31 490.4 314.173 490.853 314.902 491.458C315.133 491.636 315.285 491.841 315.356 492.072C315.445 492.286 315.454 492.499 315.383 492.713C315.329 492.908 315.222 493.077 315.062 493.22C314.92 493.344 314.742 493.407 314.529 493.407C314.315 493.407 314.075 493.318 313.808 493.14C313.167 492.624 312.465 492.241 311.7 491.992C310.935 491.743 310.107 491.618 309.218 491.618C307.812 491.618 306.62 491.921 305.642 492.526C304.663 493.113 303.925 493.976 303.426 495.115C302.928 496.253 302.679 497.632 302.679 499.251C302.679 500.87 302.928 502.258 303.426 503.414C303.925 504.553 304.663 505.425 305.642 506.03C306.62 506.617 307.812 506.91 309.218 506.91C310.089 506.91 310.917 506.786 311.7 506.537C312.482 506.27 313.203 505.879 313.861 505.363C314.128 505.185 314.368 505.105 314.582 505.122C314.795 505.122 314.973 505.185 315.116 505.309C315.258 505.434 315.356 505.594 315.409 505.79C315.48 505.985 315.48 506.19 315.409 506.403C315.356 506.617 315.222 506.804 315.009 506.964C314.262 507.604 313.381 508.094 312.367 508.432C311.37 508.752 310.303 508.912 309.164 508.912ZM319.755 508.859C319.4 508.859 319.133 508.761 318.955 508.565C318.777 508.369 318.688 508.094 318.688 507.738V490.764C318.688 490.409 318.777 490.142 318.955 489.964C319.133 489.768 319.4 489.67 319.755 489.67C320.093 489.67 320.36 489.768 320.556 489.964C320.752 490.142 320.85 490.409 320.85 490.764V498.584H320.503C320.876 497.552 321.481 496.778 322.317 496.262C323.171 495.728 324.15 495.462 325.253 495.462C326.285 495.462 327.139 495.648 327.815 496.022C328.509 496.396 329.025 496.965 329.363 497.73C329.701 498.477 329.87 499.429 329.87 500.586V507.738C329.87 508.094 329.772 508.369 329.576 508.565C329.398 508.761 329.14 508.859 328.802 508.859C328.447 508.859 328.171 508.761 327.975 508.565C327.797 508.369 327.708 508.094 327.708 507.738V500.719C327.708 499.509 327.468 498.628 326.988 498.077C326.525 497.508 325.778 497.223 324.746 497.223C323.554 497.223 322.602 497.597 321.89 498.344C321.196 499.073 320.85 500.052 320.85 501.279V507.738C320.85 508.485 320.485 508.859 319.755 508.859ZM337.939 508.912C337.05 508.912 336.249 508.743 335.537 508.405C334.843 508.049 334.292 507.569 333.883 506.964C333.473 506.359 333.269 505.683 333.269 504.936C333.269 503.975 333.509 503.219 333.989 502.667C334.488 502.116 335.297 501.724 336.418 501.493C337.557 501.262 339.105 501.146 341.062 501.146H342.263V502.56H341.088C339.647 502.56 338.509 502.632 337.672 502.774C336.854 502.898 336.276 503.121 335.938 503.441C335.617 503.761 335.457 504.215 335.457 504.802C335.457 505.532 335.706 506.128 336.205 506.59C336.72 507.053 337.414 507.284 338.286 507.284C338.998 507.284 339.621 507.115 340.154 506.777C340.706 506.439 341.133 505.976 341.435 505.389C341.756 504.802 341.916 504.126 341.916 503.361V500.319C341.916 499.216 341.693 498.424 341.248 497.943C340.804 497.445 340.074 497.196 339.06 497.196C338.437 497.196 337.815 497.276 337.192 497.436C336.569 497.597 335.911 497.854 335.217 498.21C334.968 498.335 334.754 498.379 334.577 498.344C334.399 498.29 334.256 498.193 334.15 498.05C334.043 497.908 333.981 497.748 333.963 497.57C333.945 497.374 333.981 497.187 334.069 497.009C334.176 496.831 334.336 496.689 334.55 496.582C335.333 496.191 336.107 495.906 336.872 495.728C337.637 495.55 338.366 495.462 339.06 495.462C340.181 495.462 341.106 495.648 341.836 496.022C342.565 496.378 343.108 496.929 343.464 497.677C343.819 498.406 343.997 499.349 343.997 500.505V507.738C343.997 508.094 343.908 508.369 343.73 508.565C343.57 508.761 343.33 508.859 343.01 508.859C342.672 508.859 342.414 508.761 342.236 508.565C342.058 508.369 341.969 508.094 341.969 507.738V505.656H342.209C342.067 506.332 341.791 506.91 341.382 507.391C340.99 507.871 340.501 508.245 339.914 508.512C339.327 508.779 338.669 508.912 337.939 508.912ZM349.075 508.859C348.719 508.859 348.453 508.761 348.275 508.565C348.097 508.369 348.008 508.094 348.008 507.738V496.609C348.008 496.253 348.097 495.986 348.275 495.808C348.453 495.613 348.711 495.515 349.049 495.515C349.387 495.515 349.645 495.613 349.822 495.808C350.018 495.986 350.116 496.253 350.116 496.609V498.904L349.822 498.584C350.196 497.552 350.801 496.778 351.637 496.262C352.491 495.728 353.47 495.462 354.573 495.462C355.605 495.462 356.459 495.648 357.135 496.022C357.829 496.396 358.345 496.965 358.683 497.73C359.021 498.477 359.19 499.429 359.19 500.586V507.738C359.19 508.094 359.092 508.369 358.896 508.565C358.718 508.761 358.46 508.859 358.122 508.859C357.767 508.859 357.491 508.761 357.295 508.565C357.117 508.369 357.028 508.094 357.028 507.738V500.719C357.028 499.509 356.788 498.628 356.308 498.077C355.845 497.508 355.098 497.223 354.066 497.223C352.874 497.223 351.922 497.597 351.21 498.344C350.516 499.073 350.169 500.052 350.169 501.279V507.738C350.169 508.485 349.805 508.859 349.075 508.859ZM368.914 513.716C367.971 513.716 367.046 513.6 366.138 513.369C365.249 513.155 364.439 512.808 363.71 512.328C363.496 512.204 363.354 512.052 363.283 511.874C363.229 511.696 363.22 511.519 363.256 511.341C363.292 511.181 363.372 511.029 363.496 510.887C363.621 510.762 363.763 510.682 363.923 510.647C364.101 510.611 364.279 510.638 364.457 510.727C365.24 511.207 365.987 511.536 366.699 511.714C367.41 511.892 368.113 511.981 368.807 511.981C370.07 511.981 371.022 511.643 371.663 510.967C372.321 510.291 372.65 509.312 372.65 508.031V505.016H372.917C372.65 506.048 372.081 506.866 371.209 507.471C370.355 508.076 369.35 508.378 368.193 508.378C367.001 508.378 365.969 508.111 365.097 507.578C364.226 507.026 363.55 506.261 363.069 505.283C362.607 504.304 362.375 503.174 362.375 501.893C362.375 500.932 362.509 500.061 362.776 499.278C363.042 498.477 363.425 497.801 363.923 497.25C364.439 496.68 365.053 496.244 365.765 495.942C366.494 495.622 367.304 495.462 368.193 495.462C369.367 495.462 370.382 495.764 371.236 496.369C372.09 496.956 372.641 497.757 372.89 498.771L372.623 499.091V496.609C372.623 496.253 372.712 495.986 372.89 495.808C373.086 495.613 373.353 495.515 373.691 495.515C374.047 495.515 374.314 495.613 374.491 495.808C374.669 495.986 374.758 496.253 374.758 496.609V507.738C374.758 509.713 374.26 511.198 373.264 512.195C372.285 513.209 370.835 513.716 368.914 513.716ZM368.593 506.617C369.43 506.617 370.15 506.43 370.755 506.056C371.36 505.665 371.823 505.114 372.143 504.402C372.481 503.69 372.65 502.854 372.65 501.893C372.65 500.452 372.285 499.313 371.556 498.477C370.826 497.623 369.839 497.196 368.593 497.196C367.775 497.196 367.063 497.392 366.458 497.783C365.854 498.157 365.382 498.7 365.044 499.411C364.724 500.105 364.564 500.932 364.564 501.893C364.564 503.334 364.928 504.482 365.658 505.336C366.387 506.19 367.366 506.617 368.593 506.617ZM384.658 508.912C383.288 508.912 382.105 508.645 381.108 508.111C380.13 507.56 379.365 506.786 378.813 505.79C378.279 504.793 378.013 503.601 378.013 502.213C378.013 500.861 378.279 499.687 378.813 498.691C379.347 497.677 380.076 496.885 381.002 496.316C381.945 495.746 383.03 495.462 384.257 495.462C385.129 495.462 385.912 495.613 386.606 495.915C387.3 496.2 387.887 496.618 388.367 497.17C388.866 497.721 389.239 498.388 389.488 499.171C389.755 499.954 389.889 500.835 389.889 501.813C389.889 502.098 389.808 502.311 389.648 502.454C389.488 502.578 389.257 502.64 388.954 502.64H379.667V501.226H388.447L388.02 501.573C388.02 500.612 387.878 499.803 387.593 499.144C387.309 498.468 386.891 497.952 386.339 497.597C385.805 497.241 385.129 497.063 384.311 497.063C383.403 497.063 382.63 497.276 381.989 497.703C381.366 498.112 380.895 498.691 380.575 499.438C380.254 500.167 380.094 501.021 380.094 502V502.16C380.094 503.797 380.486 505.042 381.268 505.896C382.069 506.75 383.199 507.177 384.658 507.177C385.263 507.177 385.859 507.097 386.446 506.937C387.051 506.777 387.638 506.51 388.207 506.137C388.456 505.976 388.679 505.905 388.874 505.923C389.088 505.923 389.257 505.985 389.381 506.11C389.506 506.217 389.586 506.359 389.622 506.537C389.675 506.697 389.657 506.875 389.568 507.071C389.497 507.266 389.346 507.435 389.115 507.578C388.527 508.005 387.834 508.334 387.033 508.565C386.232 508.796 385.441 508.912 384.658 508.912ZM401.392 508.672C401.001 508.672 400.698 508.574 400.485 508.378C400.289 508.165 400.191 507.862 400.191 507.471V491.058C400.191 490.667 400.289 490.373 400.485 490.177C400.698 489.964 401.001 489.857 401.392 489.857H406.543C409.585 489.857 411.934 490.658 413.588 492.259C415.243 493.86 416.07 496.191 416.07 499.251C416.07 500.781 415.857 502.133 415.43 503.308C415.02 504.464 414.407 505.443 413.588 506.243C412.77 507.044 411.773 507.649 410.599 508.058C409.425 508.467 408.073 508.672 406.543 508.672H401.392ZM402.379 506.804H406.383C407.628 506.804 408.704 506.644 409.612 506.323C410.537 506.003 411.302 505.532 411.907 504.909C412.53 504.286 412.992 503.503 413.295 502.56C413.597 501.6 413.748 500.497 413.748 499.251C413.748 496.743 413.134 494.865 411.907 493.62C410.679 492.357 408.838 491.725 406.383 491.725H402.379V506.804ZM420.799 508.859C420.443 508.859 420.167 508.761 419.972 508.565C419.794 508.369 419.705 508.094 419.705 507.738V496.609C419.705 496.253 419.794 495.986 419.972 495.808C420.149 495.613 420.407 495.515 420.745 495.515C421.084 495.515 421.341 495.613 421.519 495.808C421.715 495.986 421.813 496.253 421.813 496.609V498.771H421.546C421.831 497.721 422.373 496.912 423.174 496.342C423.975 495.773 424.962 495.47 426.136 495.435C426.403 495.417 426.617 495.479 426.777 495.622C426.937 495.746 427.026 495.969 427.044 496.289C427.062 496.591 426.99 496.831 426.83 497.009C426.67 497.187 426.421 497.294 426.083 497.33L425.656 497.383C424.446 497.49 423.512 497.881 422.854 498.557C422.213 499.216 421.893 500.123 421.893 501.279V507.738C421.893 508.094 421.795 508.369 421.599 508.565C421.422 508.761 421.155 508.859 420.799 508.859ZM434.958 508.912C433.588 508.912 432.405 508.645 431.408 508.111C430.43 507.56 429.665 506.786 429.113 505.79C428.579 504.793 428.312 503.601 428.312 502.213C428.312 500.861 428.579 499.687 429.113 498.691C429.647 497.677 430.376 496.885 431.301 496.316C432.244 495.746 433.33 495.462 434.557 495.462C435.429 495.462 436.212 495.613 436.906 495.915C437.6 496.2 438.187 496.618 438.667 497.17C439.165 497.721 439.539 498.388 439.788 499.171C440.055 499.954 440.188 500.835 440.188 501.813C440.188 502.098 440.108 502.311 439.948 502.454C439.788 502.578 439.557 502.64 439.254 502.64H429.967V501.226H438.747L438.32 501.573C438.32 500.612 438.178 499.803 437.893 499.144C437.609 498.468 437.191 497.952 436.639 497.597C436.105 497.241 435.429 497.063 434.611 497.063C433.703 497.063 432.929 497.276 432.289 497.703C431.666 498.112 431.195 498.691 430.874 499.438C430.554 500.167 430.394 501.021 430.394 502V502.16C430.394 503.797 430.786 505.042 431.568 505.896C432.369 506.75 433.499 507.177 434.958 507.177C435.563 507.177 436.159 507.097 436.746 506.937C437.351 506.777 437.938 506.51 438.507 506.137C438.756 505.976 438.979 505.905 439.174 505.923C439.388 505.923 439.557 505.985 439.681 506.11C439.806 506.217 439.886 506.359 439.922 506.537C439.975 506.697 439.957 506.875 439.868 507.071C439.797 507.266 439.646 507.435 439.415 507.578C438.827 508.005 438.134 508.334 437.333 508.565C436.532 508.796 435.741 508.912 434.958 508.912ZM447.694 508.912C446.893 508.912 446.084 508.814 445.265 508.618C444.465 508.423 443.717 508.085 443.023 507.604C442.845 507.48 442.721 507.337 442.65 507.177C442.579 506.999 442.552 506.83 442.57 506.67C442.605 506.492 442.676 506.341 442.783 506.217C442.908 506.092 443.05 506.021 443.21 506.003C443.388 505.968 443.584 506.003 443.797 506.11C444.491 506.537 445.158 506.839 445.799 507.017C446.457 507.177 447.107 507.257 447.747 507.257C448.761 507.257 449.526 507.071 450.042 506.697C450.558 506.323 450.816 505.816 450.816 505.176C450.816 504.678 450.647 504.286 450.309 504.002C449.971 503.699 449.437 503.468 448.708 503.308L446.279 502.774C445.158 502.543 444.322 502.142 443.771 501.573C443.237 501.004 442.97 500.265 442.97 499.358C442.97 498.557 443.175 497.872 443.584 497.303C444.011 496.716 444.607 496.262 445.372 495.942C446.137 495.622 447.027 495.462 448.041 495.462C448.824 495.462 449.562 495.568 450.256 495.782C450.967 495.977 451.608 496.298 452.177 496.743C452.355 496.867 452.471 497.018 452.524 497.196C452.595 497.356 452.604 497.525 452.551 497.703C452.515 497.863 452.435 498.006 452.311 498.13C452.186 498.237 452.035 498.299 451.857 498.317C451.679 498.335 451.492 498.281 451.297 498.157C450.763 497.801 450.22 497.543 449.669 497.383C449.117 497.205 448.574 497.116 448.041 497.116C447.044 497.116 446.288 497.312 445.772 497.703C445.256 498.095 444.998 498.611 444.998 499.251C444.998 499.749 445.158 500.159 445.479 500.479C445.799 500.799 446.297 501.03 446.973 501.173L449.402 501.68C450.558 501.929 451.421 502.329 451.99 502.881C452.578 503.414 452.871 504.144 452.871 505.069C452.871 506.243 452.4 507.177 451.457 507.871C450.514 508.565 449.259 508.912 447.694 508.912ZM460.542 508.912C459.742 508.912 458.932 508.814 458.114 508.618C457.313 508.423 456.566 508.085 455.872 507.604C455.694 507.48 455.57 507.337 455.498 507.177C455.427 506.999 455.401 506.83 455.418 506.67C455.454 506.492 455.525 506.341 455.632 506.217C455.756 506.092 455.899 506.021 456.059 506.003C456.237 505.968 456.432 506.003 456.646 506.11C457.34 506.537 458.007 506.839 458.648 507.017C459.306 507.177 459.955 507.257 460.596 507.257C461.61 507.257 462.375 507.071 462.891 506.697C463.407 506.323 463.665 505.816 463.665 505.176C463.665 504.678 463.496 504.286 463.158 504.002C462.82 503.699 462.286 503.468 461.556 503.308L459.128 502.774C458.007 502.543 457.171 502.142 456.619 501.573C456.086 501.004 455.819 500.265 455.819 499.358C455.819 498.557 456.023 497.872 456.432 497.303C456.859 496.716 457.455 496.262 458.221 495.942C458.986 495.622 459.875 495.462 460.889 495.462C461.672 495.462 462.41 495.568 463.104 495.782C463.816 495.977 464.457 496.298 465.026 496.743C465.204 496.867 465.319 497.018 465.373 497.196C465.444 497.356 465.453 497.525 465.4 497.703C465.364 497.863 465.284 498.006 465.159 498.13C465.035 498.237 464.884 498.299 464.706 498.317C464.528 498.335 464.341 498.281 464.145 498.157C463.611 497.801 463.069 497.543 462.517 497.383C461.966 497.205 461.423 497.116 460.889 497.116C459.893 497.116 459.137 497.312 458.621 497.703C458.105 498.095 457.847 498.611 457.847 499.251C457.847 499.749 458.007 500.159 458.327 500.479C458.648 500.799 459.146 501.03 459.822 501.173L462.25 501.68C463.407 501.929 464.27 502.329 464.839 502.881C465.426 503.414 465.72 504.144 465.72 505.069C465.72 506.243 465.248 507.177 464.305 507.871C463.362 508.565 462.108 508.912 460.542 508.912Z" fill="#333333"/>
</g>
<g filter="url(#filter3_d_5_238)">
<rect x="49" y="370" width="166.057" height="43.3438" rx="21.6719" fill="white"/>
<g clip-path="url(#clip1_5_238)">
<path d="M83.9893 394.746C85.6331 392.803 86.4624 390.3 86.3037 387.76C86.145 385.22 85.0107 382.84 83.1379 381.117C81.265 379.393 78.7985 378.461 76.2541 378.514C73.7096 378.567 71.2841 379.601 69.4845 381.4C67.6849 383.2 66.6505 385.626 66.5976 388.17C66.5447 390.715 67.4773 393.181 69.2005 395.054C70.9237 396.927 73.3042 398.061 75.8442 398.22C78.3843 398.378 80.8874 397.549 82.8303 395.905L91.5021 404.585L92.6611 403.426L83.9893 394.746ZM76.4682 396.604C74.8425 396.604 73.2533 396.122 71.9015 395.219C70.5498 394.315 69.4962 393.032 68.8741 391.53C68.252 390.028 68.0892 388.375 68.4064 386.781C68.7235 385.186 69.5064 383.721 70.6559 382.572C71.8055 381.422 73.2701 380.64 74.8646 380.322C76.4591 380.005 78.1118 380.168 79.6137 380.79C81.1157 381.412 82.3995 382.466 83.3027 383.818C84.2059 385.169 84.6879 386.758 84.6879 388.384C84.6879 390.564 83.8219 392.655 82.2804 394.196C80.7389 395.738 78.6482 396.604 76.4682 396.604Z" fill="black"/>
<path d="M77.2901 384.274H75.6462V387.562H72.3583V389.206H75.6462V392.494H77.2901V389.206H80.578V387.562H77.2901V384.274Z" fill="black"/>
</g>
<path d="M103.202 400.672C102.917 400.672 102.686 400.618 102.508 400.512C102.33 400.387 102.206 400.227 102.135 400.031C102.063 399.818 102.054 399.587 102.108 399.337C102.179 399.071 102.321 398.804 102.535 398.537L113.637 382.898V383.752H103.042C102.704 383.752 102.446 383.672 102.268 383.512C102.09 383.334 102.001 383.094 102.001 382.791C102.001 382.489 102.09 382.257 102.268 382.097C102.446 381.937 102.704 381.857 103.042 381.857H114.624C114.909 381.857 115.14 381.919 115.318 382.044C115.514 382.151 115.638 382.302 115.692 382.498C115.763 382.693 115.763 382.925 115.692 383.191C115.638 383.458 115.514 383.725 115.318 383.992L104.216 399.604V398.777H115.185C115.523 398.777 115.781 398.857 115.959 399.017C116.137 399.177 116.226 399.409 116.226 399.711C116.226 400.031 116.137 400.272 115.959 400.432C115.781 400.592 115.523 400.672 115.185 400.672H103.202ZM123.651 400.912C122.387 400.912 121.293 400.636 120.368 400.085C119.443 399.533 118.722 398.759 118.206 397.763C117.708 396.749 117.459 395.557 117.459 394.187C117.459 393.155 117.601 392.23 117.886 391.411C118.171 390.575 118.589 389.863 119.14 389.276C119.692 388.689 120.341 388.244 121.089 387.942C121.854 387.622 122.708 387.462 123.651 387.462C124.914 387.462 126.008 387.737 126.933 388.289C127.858 388.84 128.57 389.623 129.068 390.637C129.584 391.634 129.842 392.817 129.842 394.187C129.842 395.219 129.7 396.144 129.415 396.962C129.13 397.781 128.712 398.492 128.161 399.097C127.609 399.684 126.951 400.138 126.186 400.458C125.439 400.761 124.594 400.912 123.651 400.912ZM123.651 399.177C124.451 399.177 125.154 398.982 125.759 398.59C126.364 398.199 126.826 397.629 127.147 396.882C127.485 396.135 127.654 395.236 127.654 394.187C127.654 392.568 127.289 391.331 126.56 390.477C125.848 389.623 124.878 389.196 123.651 389.196C122.832 389.196 122.121 389.392 121.516 389.783C120.928 390.157 120.466 390.717 120.128 391.465C119.808 392.194 119.647 393.101 119.647 394.187C119.647 395.788 120.012 397.025 120.742 397.896C121.471 398.75 122.441 399.177 123.651 399.177ZM138.48 400.912C137.217 400.912 136.123 400.636 135.197 400.085C134.272 399.533 133.552 398.759 133.036 397.763C132.538 396.749 132.288 395.557 132.288 394.187C132.288 393.155 132.431 392.23 132.715 391.411C133 390.575 133.418 389.863 133.97 389.276C134.521 388.689 135.171 388.244 135.918 387.942C136.683 387.622 137.537 387.462 138.48 387.462C139.743 387.462 140.837 387.737 141.763 388.289C142.688 388.84 143.399 389.623 143.898 390.637C144.414 391.634 144.671 392.817 144.671 394.187C144.671 395.219 144.529 396.144 144.244 396.962C143.96 397.781 143.542 398.492 142.99 399.097C142.439 399.684 141.78 400.138 141.015 400.458C140.268 400.761 139.423 400.912 138.48 400.912ZM138.48 399.177C139.281 399.177 139.983 398.982 140.588 398.59C141.193 398.199 141.656 397.629 141.976 396.882C142.314 396.135 142.483 395.236 142.483 394.187C142.483 392.568 142.118 391.331 141.389 390.477C140.677 389.623 139.708 389.196 138.48 389.196C137.662 389.196 136.95 389.392 136.345 389.783C135.758 390.157 135.295 390.717 134.957 391.465C134.637 392.194 134.477 393.101 134.477 394.187C134.477 395.788 134.842 397.025 135.571 397.896C136.3 398.75 137.27 399.177 138.48 399.177ZM149.039 400.859C148.683 400.859 148.417 400.761 148.239 400.565C148.061 400.369 147.972 400.094 147.972 399.738V388.609C147.972 388.253 148.061 387.986 148.239 387.808C148.417 387.613 148.675 387.515 149.013 387.515C149.351 387.515 149.609 387.613 149.787 387.808C149.982 387.986 150.08 388.253 150.08 388.609V390.958L149.787 390.584C150.125 389.588 150.667 388.823 151.414 388.289C152.18 387.737 153.087 387.462 154.137 387.462C155.24 387.462 156.129 387.728 156.805 388.262C157.499 388.778 157.962 389.588 158.193 390.691H157.793C158.113 389.694 158.682 388.912 159.501 388.342C160.337 387.755 161.307 387.462 162.41 387.462C163.388 387.462 164.189 387.648 164.812 388.022C165.452 388.396 165.933 388.965 166.253 389.73C166.573 390.477 166.733 391.429 166.733 392.586V399.738C166.733 400.094 166.635 400.369 166.44 400.565C166.262 400.761 165.995 400.859 165.639 400.859C165.301 400.859 165.034 400.761 164.838 400.565C164.66 400.369 164.571 400.094 164.571 399.738V392.692C164.571 391.5 164.367 390.628 163.958 390.077C163.548 389.508 162.855 389.223 161.876 389.223C160.809 389.223 159.963 389.597 159.341 390.344C158.736 391.073 158.433 392.07 158.433 393.333V399.738C158.433 400.094 158.335 400.369 158.14 400.565C157.962 400.761 157.695 400.859 157.339 400.859C157.001 400.859 156.734 400.761 156.539 400.565C156.361 400.369 156.272 400.094 156.272 399.738V392.692C156.272 391.5 156.058 390.628 155.631 390.077C155.222 389.508 154.537 389.223 153.576 389.223C152.509 389.223 151.664 389.597 151.041 390.344C150.436 391.073 150.133 392.07 150.133 393.333V399.738C150.133 400.485 149.769 400.859 149.039 400.859ZM178.723 400.805C178.367 400.805 178.1 400.707 177.922 400.512C177.744 400.298 177.655 400.005 177.655 399.631V388.716C177.655 388.342 177.744 388.058 177.922 387.862C178.1 387.666 178.367 387.568 178.723 387.568C179.061 387.568 179.328 387.666 179.523 387.862C179.719 388.058 179.817 388.342 179.817 388.716V399.631C179.817 400.005 179.719 400.298 179.523 400.512C179.346 400.707 179.079 400.805 178.723 400.805ZM178.723 384.579C178.278 384.579 177.931 384.464 177.682 384.232C177.433 383.983 177.308 383.654 177.308 383.245C177.308 382.818 177.433 382.498 177.682 382.284C177.931 382.053 178.278 381.937 178.723 381.937C179.185 381.937 179.532 382.053 179.764 382.284C180.013 382.498 180.137 382.818 180.137 383.245C180.137 383.654 180.013 383.983 179.764 384.232C179.532 384.464 179.185 384.579 178.723 384.579ZM184.926 400.859C184.57 400.859 184.303 400.761 184.125 400.565C183.947 400.369 183.858 400.094 183.858 399.738V388.609C183.858 388.253 183.947 387.986 184.125 387.808C184.303 387.613 184.561 387.515 184.899 387.515C185.237 387.515 185.495 387.613 185.673 387.808C185.869 387.986 185.966 388.253 185.966 388.609V390.904L185.673 390.584C186.046 389.552 186.651 388.778 187.488 388.262C188.342 387.728 189.32 387.462 190.423 387.462C191.455 387.462 192.309 387.648 192.985 388.022C193.679 388.396 194.195 388.965 194.533 389.73C194.871 390.477 195.04 391.429 195.04 392.586V399.738C195.04 400.094 194.942 400.369 194.747 400.565C194.569 400.761 194.311 400.859 193.973 400.859C193.617 400.859 193.341 400.761 193.145 400.565C192.967 400.369 192.879 400.094 192.879 399.738V392.719C192.879 391.509 192.638 390.628 192.158 390.077C191.695 389.508 190.948 389.223 189.916 389.223C188.724 389.223 187.772 389.597 187.061 390.344C186.367 391.073 186.02 392.052 186.02 393.279V399.738C186.02 400.485 185.655 400.859 184.926 400.859Z" fill="#333333"/>
</g>
<g filter="url(#filter4_d_5_238)">
<rect x="416" y="327" width="168.602" height="43.3438" rx="21.6719" fill="white"/>
<path d="M442.736 348.935L440.031 345.965L440.458 345.581L440.026 345.965C439.972 345.906 439.932 345.835 439.907 345.759C439.882 345.682 439.874 345.602 439.882 345.522C439.89 345.442 439.915 345.365 439.954 345.295C439.994 345.225 440.048 345.164 440.112 345.116L441.784 343.601C441.844 343.548 441.914 343.508 441.99 343.483C442.067 343.458 442.147 343.45 442.227 343.458C442.307 343.466 442.385 343.491 442.454 343.53C442.524 343.57 442.585 343.624 442.633 343.688L445.354 346.701L442.747 348.93L442.736 348.935Z" fill="#959595"/>
<path d="M452.084 359.295L442.725 348.946L442.736 348.935L445.354 346.701L454.653 356.974L452.089 359.3L452.084 359.295Z" fill="#676767"/>
<path d="M457.223 360.761L455.546 362.27C455.486 362.322 455.416 362.367 455.34 362.392C455.264 362.416 455.184 362.424 455.105 362.416C455.026 362.408 454.949 362.384 454.88 362.344C454.81 362.305 454.75 362.252 454.702 362.189L452.084 359.295L454.648 356.969L457.298 359.911C457.352 359.971 457.398 360.041 457.423 360.117C457.449 360.193 457.458 360.274 457.45 360.354C457.442 360.434 457.418 360.511 457.379 360.581C457.34 360.651 457.287 360.712 457.223 360.761Z" fill="#2F2F2F"/>
<path d="M444.754 337.467C444.369 338.125 443.819 338.672 443.158 339.052C443.817 339.433 444.365 339.979 444.748 340.637C445.131 339.979 445.679 339.433 446.339 339.052C445.679 338.671 445.137 338.125 444.754 337.467Z" fill="#414141"/>
<path d="M444.753 342.963C444.185 341.059 442.243 339.133 441.005 339.133C442.936 338.392 444.115 336.812 444.748 334.924C445.381 336.818 446.56 338.387 448.492 339.133C447.253 339.133 445.322 341.059 444.753 342.963Z" fill="#BCBCBC"/>
<path d="M436.737 340.258C436.46 340.73 436.064 341.122 435.59 341.394C436.066 341.67 436.461 342.065 436.737 342.541C437.013 342.067 437.408 341.674 437.883 341.4C437.408 341.126 437.013 340.732 436.737 340.258Z" fill="#414141"/>
<path d="M436.737 344.218C436.325 342.844 434.93 341.459 434.037 341.459C435.427 340.918 436.277 339.782 436.737 338.424C437.191 339.788 438.04 340.924 439.43 341.454C438.538 341.454 437.142 342.849 436.737 344.218Z" fill="#A0A0A0"/>
<path d="M435.476 348.135C435.284 348.463 435.01 348.735 434.681 348.925C435.011 349.116 435.285 349.39 435.476 349.72C435.667 349.39 435.941 349.116 436.271 348.925C435.942 348.735 435.668 348.463 435.476 348.135Z" fill="#414141"/>
<path d="M435.476 350.883C435.195 349.931 434.226 348.962 433.604 348.962C434.056 348.777 434.459 348.491 434.783 348.126C435.107 347.761 435.344 347.328 435.476 346.858C435.795 347.805 436.385 348.594 437.348 348.968C436.731 348.968 435.763 349.931 435.476 350.883Z" fill="#868686"/>
<path d="M468.764 357.672C468.373 357.672 468.07 357.574 467.857 357.378C467.661 357.165 467.563 356.862 467.563 356.471V340.058C467.563 339.667 467.661 339.373 467.857 339.177C468.07 338.964 468.373 338.857 468.764 338.857H478.692C478.994 338.857 479.226 338.937 479.386 339.097C479.546 339.258 479.626 339.48 479.626 339.765C479.626 340.067 479.546 340.298 479.386 340.458C479.226 340.619 478.994 340.699 478.692 340.699H469.698V347.21H478.132C478.434 347.21 478.665 347.291 478.825 347.451C478.986 347.593 479.066 347.815 479.066 348.118C479.066 348.42 478.986 348.652 478.825 348.812C478.665 348.972 478.434 349.052 478.132 349.052H469.698V355.831H478.692C478.994 355.831 479.226 355.911 479.386 356.071C479.546 356.231 479.626 356.453 479.626 356.738C479.626 357.04 479.546 357.272 479.386 357.432C479.226 357.592 478.994 357.672 478.692 357.672H468.764ZM483.896 357.859C483.54 357.859 483.274 357.761 483.096 357.565C482.918 357.37 482.829 357.094 482.829 356.738V345.609C482.829 345.253 482.918 344.986 483.096 344.809C483.274 344.613 483.532 344.515 483.87 344.515C484.208 344.515 484.466 344.613 484.644 344.809C484.839 344.986 484.937 345.253 484.937 345.609V347.904L484.644 347.584C485.017 346.552 485.622 345.778 486.458 345.262C487.312 344.728 488.291 344.462 489.394 344.462C490.426 344.462 491.28 344.648 491.956 345.022C492.65 345.396 493.166 345.965 493.504 346.73C493.842 347.477 494.011 348.429 494.011 349.586V356.738C494.011 357.094 493.913 357.37 493.717 357.565C493.539 357.761 493.281 357.859 492.943 357.859C492.588 357.859 492.312 357.761 492.116 357.565C491.938 357.37 491.849 357.094 491.849 356.738V349.719C491.849 348.509 491.609 347.629 491.129 347.077C490.666 346.508 489.919 346.223 488.887 346.223C487.695 346.223 486.743 346.597 486.031 347.344C485.337 348.073 484.99 349.052 484.99 350.28V356.738C484.99 357.485 484.626 357.859 483.896 357.859ZM499.064 357.859C498.709 357.859 498.442 357.761 498.264 357.565C498.086 357.37 497.997 357.094 497.997 356.738V339.765C497.997 339.409 498.086 339.142 498.264 338.964C498.442 338.768 498.709 338.67 499.064 338.67C499.402 338.67 499.669 338.768 499.865 338.964C500.061 339.142 500.159 339.409 500.159 339.765V347.584H499.812C500.185 346.552 500.79 345.778 501.626 345.262C502.48 344.728 503.459 344.462 504.562 344.462C505.594 344.462 506.448 344.648 507.124 345.022C507.818 345.396 508.334 345.965 508.672 346.73C509.01 347.477 509.179 348.429 509.179 349.586V356.738C509.179 357.094 509.081 357.37 508.885 357.565C508.708 357.761 508.45 357.859 508.112 357.859C507.756 357.859 507.48 357.761 507.284 357.565C507.106 357.37 507.017 357.094 507.017 356.738V349.719C507.017 348.509 506.777 347.629 506.297 347.077C505.834 346.508 505.087 346.223 504.055 346.223C502.863 346.223 501.911 346.597 501.199 347.344C500.506 348.073 500.159 349.052 500.159 350.28V356.738C500.159 357.485 499.794 357.859 499.064 357.859ZM517.248 357.912C516.359 357.912 515.558 357.743 514.846 357.405C514.153 357.049 513.601 356.569 513.192 355.964C512.783 355.359 512.578 354.683 512.578 353.936C512.578 352.975 512.818 352.219 513.299 351.667C513.797 351.116 514.606 350.724 515.727 350.493C516.866 350.262 518.414 350.146 520.371 350.146H521.572V351.561H520.397C518.956 351.561 517.818 351.632 516.981 351.774C516.163 351.899 515.585 352.121 515.247 352.441C514.926 352.761 514.766 353.215 514.766 353.802C514.766 354.532 515.015 355.128 515.514 355.59C516.03 356.053 516.723 356.284 517.595 356.284C518.307 356.284 518.93 356.115 519.463 355.777C520.015 355.439 520.442 354.977 520.744 354.389C521.065 353.802 521.225 353.126 521.225 352.361V349.319C521.225 348.216 521.002 347.424 520.558 346.944C520.113 346.445 519.383 346.196 518.369 346.196C517.746 346.196 517.124 346.276 516.501 346.437C515.878 346.597 515.22 346.855 514.526 347.21C514.277 347.335 514.064 347.379 513.886 347.344C513.708 347.291 513.565 347.193 513.459 347.05C513.352 346.908 513.29 346.748 513.272 346.57C513.254 346.374 513.29 346.187 513.379 346.01C513.485 345.832 513.645 345.689 513.859 345.583C514.642 345.191 515.416 344.906 516.181 344.728C516.946 344.551 517.675 344.462 518.369 344.462C519.49 344.462 520.415 344.648 521.145 345.022C521.874 345.378 522.417 345.929 522.773 346.677C523.128 347.406 523.306 348.349 523.306 349.506V356.738C523.306 357.094 523.217 357.37 523.04 357.565C522.879 357.761 522.639 357.859 522.319 357.859C521.981 357.859 521.723 357.761 521.545 357.565C521.367 357.37 521.278 357.094 521.278 356.738V354.656H521.518C521.376 355.332 521.1 355.911 520.691 356.391C520.3 356.871 519.81 357.245 519.223 357.512C518.636 357.779 517.978 357.912 517.248 357.912ZM528.384 357.859C528.029 357.859 527.762 357.761 527.584 357.565C527.406 357.37 527.317 357.094 527.317 356.738V345.609C527.317 345.253 527.406 344.986 527.584 344.809C527.762 344.613 528.02 344.515 528.358 344.515C528.696 344.515 528.954 344.613 529.132 344.809C529.327 344.986 529.425 345.253 529.425 345.609V347.904L529.132 347.584C529.505 346.552 530.11 345.778 530.946 345.262C531.8 344.728 532.779 344.462 533.882 344.462C534.914 344.462 535.768 344.648 536.444 345.022C537.138 345.396 537.654 345.965 537.992 346.73C538.33 347.477 538.499 348.429 538.499 349.586V356.738C538.499 357.094 538.401 357.37 538.205 357.565C538.027 357.761 537.769 357.859 537.431 357.859C537.076 357.859 536.8 357.761 536.604 357.565C536.426 357.37 536.337 357.094 536.337 356.738V349.719C536.337 348.509 536.097 347.629 535.617 347.077C535.154 346.508 534.407 346.223 533.375 346.223C532.183 346.223 531.231 346.597 530.519 347.344C529.825 348.073 529.479 349.052 529.479 350.28V356.738C529.479 357.485 529.114 357.859 528.384 357.859ZM547.983 357.912C546.684 357.912 545.563 357.628 544.62 357.058C543.677 356.489 542.948 355.697 542.432 354.683C541.933 353.651 541.684 352.459 541.684 351.107C541.684 350.075 541.827 349.15 542.111 348.331C542.396 347.513 542.814 346.819 543.366 346.25C543.917 345.663 544.576 345.218 545.341 344.915C546.123 344.613 547.004 344.462 547.983 344.462C548.623 344.462 549.29 344.559 549.984 344.755C550.678 344.951 551.31 345.289 551.879 345.769C552.057 345.894 552.173 346.045 552.226 346.223C552.279 346.401 552.279 346.579 552.226 346.757C552.173 346.917 552.084 347.059 551.959 347.184C551.835 347.291 551.674 347.353 551.479 347.371C551.301 347.388 551.114 347.326 550.918 347.184C550.456 346.828 549.984 346.579 549.504 346.437C549.023 346.294 548.561 346.223 548.116 346.223C547.422 346.223 546.817 346.339 546.301 346.57C545.785 346.783 545.349 347.095 544.994 347.504C544.638 347.913 544.362 348.42 544.166 349.025C543.988 349.63 543.899 350.333 543.899 351.134C543.899 352.681 544.264 353.909 544.994 354.816C545.723 355.706 546.764 356.151 548.116 356.151C548.561 356.151 549.015 356.08 549.477 355.937C549.958 355.795 550.438 355.546 550.918 355.19C551.114 355.048 551.301 354.985 551.479 355.003C551.657 355.021 551.808 355.092 551.932 355.217C552.057 355.323 552.137 355.466 552.173 355.644C552.226 355.822 552.226 356 552.173 356.177C552.119 356.338 552.004 356.48 551.826 356.604C551.256 357.067 550.634 357.405 549.958 357.619C549.281 357.814 548.623 357.912 547.983 357.912ZM560.422 357.912C559.052 357.912 557.869 357.645 556.873 357.112C555.894 356.56 555.129 355.786 554.578 354.79C554.044 353.793 553.777 352.601 553.777 351.214C553.777 349.861 554.044 348.687 554.578 347.691C555.112 346.677 555.841 345.885 556.766 345.316C557.709 344.746 558.794 344.462 560.022 344.462C560.894 344.462 561.677 344.613 562.371 344.915C563.064 345.2 563.652 345.618 564.132 346.17C564.63 346.721 565.004 347.388 565.253 348.171C565.52 348.954 565.653 349.835 565.653 350.813C565.653 351.098 565.573 351.311 565.413 351.454C565.253 351.578 565.022 351.641 564.719 351.641H555.432V350.226H564.212L563.785 350.573C563.785 349.612 563.643 348.803 563.358 348.145C563.073 347.468 562.655 346.952 562.104 346.597C561.57 346.241 560.894 346.063 560.075 346.063C559.168 346.063 558.394 346.276 557.754 346.703C557.131 347.113 556.659 347.691 556.339 348.438C556.019 349.168 555.859 350.022 555.859 351V351.16C555.859 352.797 556.25 354.042 557.033 354.896C557.834 355.75 558.964 356.177 560.422 356.177C561.027 356.177 561.623 356.097 562.21 355.937C562.815 355.777 563.403 355.51 563.972 355.137C564.221 354.977 564.443 354.905 564.639 354.923C564.853 354.923 565.022 354.985 565.146 355.11C565.271 355.217 565.351 355.359 565.386 355.537C565.44 355.697 565.422 355.875 565.333 356.071C565.262 356.266 565.111 356.435 564.879 356.578C564.292 357.005 563.598 357.334 562.798 357.565C561.997 357.797 561.205 357.912 560.422 357.912Z" fill="#333333"/>
</g>
<g filter="url(#filter5_d_5_238)">
<rect x="393" y="158" width="163.754" height="43.3438" rx="21.6719" fill="white"/>
<g clip-path="url(#clip2_5_238)">
<path d="M435.073 171.234H431.512L430.854 168.501C430.808 168.313 430.699 168.148 430.546 168.031C430.392 167.914 430.203 167.854 430.011 167.859H418.198C418.005 167.854 417.817 167.914 417.663 168.031C417.509 168.148 417.401 168.313 417.354 168.501L416.696 171.234H413.136C412.464 171.234 411.82 171.501 411.346 171.976C410.871 172.45 410.604 173.094 410.604 173.766V188.953C410.604 189.624 410.871 190.268 411.346 190.743C411.82 191.218 412.464 191.484 413.136 191.484H435.073C435.744 191.484 436.388 191.218 436.863 190.743C437.338 190.268 437.604 189.624 437.604 188.953V173.766C437.604 173.094 437.338 172.45 436.863 171.976C436.388 171.501 435.744 171.234 435.073 171.234ZM412.292 177.984H418.266C417.667 179.009 417.352 180.173 417.352 181.359C417.352 182.545 417.667 183.71 418.266 184.734H412.292V177.984ZM435.917 188.953C435.917 189.177 435.828 189.392 435.67 189.55C435.512 189.708 435.297 189.797 435.073 189.797H413.136C412.912 189.797 412.697 189.708 412.539 189.55C412.381 189.392 412.292 189.177 412.292 188.953V186.422H419.658C420.889 187.502 422.471 188.097 424.109 188.097C425.746 188.097 427.328 187.502 428.559 186.422H435.917V188.953ZM419.042 181.359C419.042 180.358 419.339 179.379 419.895 178.547C420.451 177.714 421.242 177.065 422.167 176.682C423.092 176.299 424.11 176.199 425.092 176.394C426.074 176.589 426.976 177.072 427.684 177.78C428.392 178.488 428.874 179.39 429.07 180.372C429.265 181.354 429.165 182.372 428.782 183.297C428.398 184.222 427.749 185.012 426.917 185.569C426.084 186.125 425.106 186.422 424.104 186.422C422.762 186.422 421.474 185.889 420.525 184.939C419.575 183.99 419.042 182.702 419.042 181.359ZM435.917 184.734H429.943C430.541 183.71 430.857 182.545 430.857 181.359C430.857 180.173 430.541 179.009 429.943 177.984H435.917V184.734ZM435.917 176.297H428.551C427.32 175.217 425.738 174.622 424.1 174.622C422.462 174.622 420.881 175.217 419.649 176.297H412.292V173.766C412.292 173.542 412.381 173.327 412.539 173.169C412.697 173.011 412.912 172.922 413.136 172.922H417.354C417.547 172.927 417.736 172.867 417.889 172.75C418.043 172.634 418.152 172.468 418.198 172.281L418.856 169.547H429.352L430.011 172.281C430.057 172.468 430.166 172.634 430.319 172.75C430.473 172.867 430.662 172.927 430.854 172.922H435.073C435.297 172.922 435.512 173.011 435.67 173.169C435.828 173.327 435.917 173.542 435.917 173.766V176.297Z" fill="#333333"/>
<path d="M424.104 184.734C424.772 184.734 425.424 184.536 425.979 184.166C426.534 183.795 426.967 183.268 427.222 182.651C427.478 182.034 427.545 181.356 427.415 180.701C427.284 180.046 426.963 179.445 426.491 178.973C426.019 178.501 425.417 178.179 424.763 178.049C424.108 177.919 423.43 177.986 422.813 178.241C422.196 178.497 421.669 178.929 421.298 179.484C420.927 180.039 420.729 180.692 420.729 181.359C420.729 182.254 421.085 183.113 421.718 183.746C422.351 184.379 423.209 184.734 424.104 184.734ZM424.104 179.672C424.438 179.672 424.764 179.771 425.042 179.956C425.319 180.142 425.536 180.405 425.663 180.714C425.791 181.022 425.825 181.361 425.759 181.689C425.694 182.016 425.534 182.317 425.298 182.553C425.062 182.789 424.761 182.949 424.434 183.014C424.106 183.08 423.767 183.046 423.459 182.918C423.15 182.791 422.887 182.574 422.701 182.297C422.516 182.019 422.417 181.693 422.417 181.359C422.417 180.912 422.595 180.483 422.911 180.166C423.228 179.85 423.657 179.672 424.104 179.672ZM420.729 171.234H427.479V172.922H420.729V171.234Z" fill="#333333"/>
</g>
<path d="M454.497 188.859C454.159 188.859 453.883 188.779 453.669 188.618C453.456 188.458 453.287 188.218 453.162 187.898L445.823 171.111C445.699 170.809 445.663 170.56 445.716 170.364C445.77 170.151 445.885 169.982 446.063 169.857C446.259 169.733 446.482 169.67 446.731 169.67C447.069 169.67 447.318 169.75 447.478 169.91C447.656 170.053 447.798 170.266 447.905 170.551L454.95 186.91H454.096L461.115 170.524C461.24 170.257 461.391 170.053 461.569 169.91C461.747 169.75 461.996 169.67 462.316 169.67C462.565 169.67 462.77 169.733 462.93 169.857C463.108 169.982 463.215 170.151 463.25 170.364C463.304 170.578 463.268 170.827 463.143 171.111L455.804 187.898C455.68 188.218 455.511 188.458 455.297 188.618C455.102 188.779 454.835 188.859 454.497 188.859ZM467.411 188.805C467.055 188.805 466.788 188.707 466.61 188.512C466.432 188.298 466.343 188.005 466.343 187.631V176.716C466.343 176.342 466.432 176.058 466.61 175.862C466.788 175.666 467.055 175.568 467.411 175.568C467.749 175.568 468.015 175.666 468.211 175.862C468.407 176.058 468.505 176.342 468.505 176.716V187.631C468.505 188.005 468.407 188.298 468.211 188.512C468.033 188.707 467.766 188.805 467.411 188.805ZM467.411 172.579C466.966 172.579 466.619 172.464 466.37 172.232C466.121 171.983 465.996 171.654 465.996 171.245C465.996 170.818 466.121 170.498 466.37 170.284C466.619 170.053 466.966 169.937 467.411 169.937C467.873 169.937 468.22 170.053 468.451 170.284C468.7 170.498 468.825 170.818 468.825 171.245C468.825 171.654 468.7 171.983 468.451 172.232C468.22 172.464 467.873 172.579 467.411 172.579ZM473.613 188.859C473.258 188.859 472.991 188.761 472.813 188.565C472.635 188.369 472.546 188.094 472.546 187.738V176.609C472.546 176.253 472.635 175.986 472.813 175.808C472.991 175.613 473.249 175.515 473.587 175.515C473.925 175.515 474.183 175.613 474.361 175.808C474.556 175.986 474.654 176.253 474.654 176.609V178.904L474.361 178.584C474.734 177.552 475.339 176.778 476.175 176.262C477.029 175.728 478.008 175.462 479.111 175.462C480.143 175.462 480.997 175.648 481.673 176.022C482.367 176.396 482.883 176.965 483.221 177.73C483.559 178.477 483.728 179.429 483.728 180.586V187.738C483.728 188.094 483.63 188.369 483.434 188.565C483.256 188.761 482.999 188.859 482.66 188.859C482.305 188.859 482.029 188.761 481.833 188.565C481.655 188.369 481.566 188.094 481.566 187.738V180.719C481.566 179.509 481.326 178.628 480.846 178.077C480.383 177.508 479.636 177.223 478.604 177.223C477.412 177.223 476.46 177.597 475.748 178.344C475.054 179.073 474.708 180.052 474.708 181.279V187.738C474.708 188.485 474.343 188.859 473.613 188.859ZM492.918 188.912C491.904 188.912 491.05 188.734 490.356 188.378C489.68 188.005 489.173 187.471 488.835 186.777C488.497 186.065 488.328 185.202 488.328 184.188V177.383H486.54C486.237 177.383 486.006 177.312 485.846 177.17C485.686 177.009 485.606 176.796 485.606 176.529C485.606 176.262 485.686 176.058 485.846 175.915C486.006 175.773 486.237 175.702 486.54 175.702H488.328V172.633C488.328 172.277 488.426 172.01 488.621 171.832C488.817 171.636 489.084 171.538 489.422 171.538C489.76 171.538 490.018 171.636 490.196 171.832C490.392 172.01 490.49 172.277 490.49 172.633V175.702H493.852C494.155 175.702 494.386 175.773 494.546 175.915C494.706 176.058 494.786 176.262 494.786 176.529C494.786 176.796 494.706 177.009 494.546 177.17C494.386 177.312 494.155 177.383 493.852 177.383H490.49V183.975C490.49 184.989 490.703 185.763 491.13 186.297C491.557 186.813 492.251 187.071 493.212 187.071C493.55 187.071 493.834 187.035 494.066 186.964C494.315 186.893 494.519 186.857 494.679 186.857C494.84 186.839 494.973 186.893 495.08 187.017C495.187 187.142 495.24 187.355 495.24 187.658C495.24 187.871 495.195 188.067 495.106 188.245C495.035 188.423 494.902 188.547 494.706 188.618C494.493 188.69 494.208 188.752 493.852 188.805C493.514 188.876 493.203 188.912 492.918 188.912ZM501.127 188.912C500.238 188.912 499.437 188.743 498.726 188.405C498.032 188.049 497.48 187.569 497.071 186.964C496.662 186.359 496.457 185.683 496.457 184.936C496.457 183.975 496.697 183.219 497.178 182.667C497.676 182.116 498.485 181.724 499.606 181.493C500.745 181.262 502.293 181.146 504.25 181.146H505.451V182.56H504.277C502.835 182.56 501.697 182.632 500.861 182.774C500.042 182.898 499.464 183.121 499.126 183.441C498.806 183.761 498.646 184.215 498.646 184.802C498.646 185.532 498.895 186.128 499.393 186.59C499.909 187.053 500.603 187.284 501.474 187.284C502.186 187.284 502.809 187.115 503.343 186.777C503.894 186.439 504.321 185.976 504.624 185.389C504.944 184.802 505.104 184.126 505.104 183.361V180.319C505.104 179.216 504.882 178.424 504.437 177.943C503.992 177.445 503.262 177.196 502.248 177.196C501.626 177.196 501.003 177.276 500.38 177.436C499.758 177.597 499.099 177.854 498.405 178.21C498.156 178.335 497.943 178.379 497.765 178.344C497.587 178.29 497.445 178.193 497.338 178.05C497.231 177.908 497.169 177.748 497.151 177.57C497.133 177.374 497.169 177.187 497.258 177.009C497.365 176.831 497.525 176.689 497.738 176.582C498.521 176.191 499.295 175.906 500.06 175.728C500.825 175.55 501.554 175.462 502.248 175.462C503.369 175.462 504.294 175.648 505.024 176.022C505.753 176.378 506.296 176.929 506.652 177.677C507.008 178.406 507.186 179.349 507.186 180.505V187.738C507.186 188.094 507.097 188.369 506.919 188.565C506.759 188.761 506.518 188.859 506.198 188.859C505.86 188.859 505.602 188.761 505.424 188.565C505.246 188.369 505.157 188.094 505.157 187.738V185.656H505.397C505.255 186.332 504.979 186.91 504.57 187.391C504.179 187.871 503.689 188.245 503.102 188.512C502.515 188.779 501.857 188.912 501.127 188.912ZM516.934 193.716C515.991 193.716 515.066 193.6 514.158 193.369C513.269 193.155 512.459 192.808 511.73 192.328C511.516 192.204 511.374 192.052 511.303 191.874C511.249 191.696 511.24 191.519 511.276 191.341C511.312 191.181 511.392 191.029 511.516 190.887C511.641 190.762 511.783 190.682 511.943 190.647C512.121 190.611 512.299 190.638 512.477 190.727C513.26 191.207 514.007 191.536 514.719 191.714C515.43 191.892 516.133 191.981 516.827 191.981C518.09 191.981 519.042 191.643 519.683 190.967C520.341 190.291 520.67 189.312 520.67 188.031V185.016H520.937C520.67 186.048 520.101 186.866 519.229 187.471C518.375 188.076 517.37 188.378 516.213 188.378C515.021 188.378 513.989 188.111 513.118 187.578C512.246 187.026 511.57 186.261 511.089 185.283C510.627 184.304 510.395 183.174 510.395 181.893C510.395 180.932 510.529 180.061 510.796 179.278C511.063 178.477 511.445 177.801 511.943 177.25C512.459 176.68 513.073 176.244 513.785 175.942C514.514 175.622 515.324 175.462 516.213 175.462C517.388 175.462 518.402 175.764 519.256 176.369C520.11 176.956 520.661 177.757 520.91 178.771L520.643 179.091V176.609C520.643 176.253 520.732 175.986 520.91 175.808C521.106 175.613 521.373 175.515 521.711 175.515C522.067 175.515 522.334 175.613 522.512 175.808C522.689 175.986 522.778 176.253 522.778 176.609V187.738C522.778 189.713 522.28 191.198 521.284 192.195C520.305 193.209 518.855 193.716 516.934 193.716ZM516.614 186.617C517.45 186.617 518.17 186.43 518.775 186.056C519.38 185.665 519.843 185.114 520.163 184.402C520.501 183.69 520.67 182.854 520.67 181.893C520.67 180.452 520.305 179.313 519.576 178.477C518.846 177.623 517.859 177.196 516.614 177.196C515.795 177.196 515.083 177.392 514.479 177.783C513.874 178.157 513.402 178.7 513.064 179.411C512.744 180.105 512.584 180.932 512.584 181.893C512.584 183.334 512.948 184.482 513.678 185.336C514.407 186.19 515.386 186.617 516.614 186.617ZM532.678 188.912C531.308 188.912 530.125 188.645 529.128 188.111C528.15 187.56 527.385 186.786 526.833 185.79C526.3 184.793 526.033 183.601 526.033 182.213C526.033 180.861 526.3 179.687 526.833 178.691C527.367 177.677 528.096 176.885 529.022 176.316C529.965 175.746 531.05 175.462 532.278 175.462C533.149 175.462 533.932 175.613 534.626 175.915C535.32 176.2 535.907 176.618 536.387 177.17C536.886 177.721 537.259 178.388 537.508 179.171C537.775 179.954 537.909 180.835 537.909 181.813C537.909 182.098 537.829 182.311 537.668 182.454C537.508 182.578 537.277 182.64 536.975 182.64H527.687V181.226H536.468L536.041 181.573C536.041 180.612 535.898 179.803 535.614 179.144C535.329 178.468 534.911 177.952 534.359 177.597C533.825 177.241 533.149 177.063 532.331 177.063C531.424 177.063 530.65 177.276 530.009 177.703C529.386 178.112 528.915 178.691 528.595 179.438C528.274 180.167 528.114 181.021 528.114 182V182.16C528.114 183.797 528.506 185.042 529.289 185.896C530.089 186.75 531.219 187.177 532.678 187.177C533.283 187.177 533.879 187.097 534.466 186.937C535.071 186.777 535.658 186.51 536.227 186.137C536.476 185.976 536.699 185.905 536.895 185.923C537.108 185.923 537.277 185.985 537.402 186.11C537.526 186.217 537.606 186.359 537.642 186.537C537.695 186.697 537.677 186.875 537.588 187.071C537.517 187.266 537.366 187.435 537.135 187.578C536.548 188.005 535.854 188.334 535.053 188.565C534.252 188.796 533.461 188.912 532.678 188.912Z" fill="#333333"/>
</g>
<defs>
<filter id="filter0_d_5_238" x="0.387927" y="119.241" width="188.695" height="66.2652" filterUnits="userSpaceOnUse" color-interpolation-filters="sRGB">
<feFlood flood-opacity="0" result="BackgroundImageFix"/>
<feColorMatrix in="SourceAlpha" type="matrix" values="0 0 0 0 0 0 0 0 0 0 0 0 0 0 0 0 0 0 127 0" result="hardAlpha"/>
<feOffset dy="3.75761"/>
<feGaussianBlur stdDeviation="5.73035"/>
<feComposite in2="hardAlpha" operator="out"/>
<feColorMatrix type="matrix" values="0 0 0 0 0 0 0 0 0 0 0 0 0 0 0 0 0 0 0.06 0"/>
<feBlend mode="normal" in2="BackgroundImageFix" result="effect1_dropShadow_5_238"/>
<feBlend mode="normal" in="SourceGraphic" in2="effect1_dropShadow_5_238" result="shape"/>
</filter>
<filter id="filter1_d_5_238" x="160.539" y="0.296903" width="225.971" height="66.2652" filterUnits="userSpaceOnUse" color-interpolation-filters="sRGB">
<feFlood flood-opacity="0" result="BackgroundImageFix"/>
<feColorMatrix in="SourceAlpha" type="matrix" values="0 0 0 0 0 0 0 0 0 0 0 0 0 0 0 0 0 0 127 0" result="hardAlpha"/>
<feOffset dy="3.75761"/>
<feGaussianBlur stdDeviation="5.73035"/>
<feComposite in2="hardAlpha" operator="out"/>
<feColorMatrix type="matrix" values="0 0 0 0 0 0 0 0 0 0 0 0 0 0 0 0 0 0 0.06 0"/>
<feBlend mode="normal" in2="BackgroundImageFix" result="effect1_dropShadow_5_238"/>
<feBlend mode="normal" in="SourceGraphic" in2="effect1_dropShadow_5_238" result="shape"/>
</filter>
<filter id="filter2_d_5_238" x="242.539" y="470.297" width="253.87" height="66.2652" filterUnits="userSpaceOnUse" color-interpolation-filters="sRGB">
<feFlood flood-opacity="0" result="BackgroundImageFix"/>
<feColorMatrix in="SourceAlpha" type="matrix" values="0 0 0 0 0 0 0 0 0 0 0 0 0 0 0 0 0 0 127 0" result="hardAlpha"/>
<feOffset dy="3.75761"/>
<feGaussianBlur stdDeviation="5.73035"/>
<feComposite in2="hardAlpha" operator="out"/>
<feColorMatrix type="matrix" values="0 0 0 0 0 0 0 0 0 0 0 0 0 0 0 0 0 0 0.06 0"/>
<feBlend mode="normal" in2="BackgroundImageFix" result="effect1_dropShadow_5_238"/>
<feBlend mode="normal" in="SourceGraphic" in2="effect1_dropShadow_5_238" result="shape"/>
</filter>
<filter id="filter3_d_5_238" x="37.5393" y="362.297" width="188.978" height="66.2652" filterUnits="userSpaceOnUse" color-interpolation-filters="sRGB">
<feFlood flood-opacity="0" result="BackgroundImageFix"/>
<feColorMatrix in="SourceAlpha" type="matrix" values="0 0 0 0 0 0 0 0 0 0 0 0 0 0 0 0 0 0 127 0" result="hardAlpha"/>
<feOffset dy="3.75761"/>
<feGaussianBlur stdDeviation="5.73035"/>
<feComposite in2="hardAlpha" operator="out"/>
<feColorMatrix type="matrix" values="0 0 0 0 0 0 0 0 0 0 0 0 0 0 0 0 0 0 0.06 0"/>
<feBlend mode="normal" in2="BackgroundImageFix" result="effect1_dropShadow_5_238"/>
<feBlend mode="normal" in="SourceGraphic" in2="effect1_dropShadow_5_238" result="shape"/>
</filter>
<filter id="filter4_d_5_238" x="404.539" y="319.297" width="191.523" height="66.2652" filterUnits="userSpaceOnUse" color-interpolation-filters="sRGB">
<feFlood flood-opacity="0" result="BackgroundImageFix"/>
<feColorMatrix in="SourceAlpha" type="matrix" values="0 0 0 0 0 0 0 0 0 0 0 0 0 0 0 0 0 0 127 0" result="hardAlpha"/>
<feOffset dy="3.75761"/>
<feGaussianBlur stdDeviation="5.73035"/>
<feComposite in2="hardAlpha" operator="out"/>
<feColorMatrix type="matrix" values="0 0 0 0 0 0 0 0 0 0 0 0 0 0 0 0 0 0 0.06 0"/>
<feBlend mode="normal" in2="BackgroundImageFix" result="effect1_dropShadow_5_238"/>
<feBlend mode="normal" in="SourceGraphic" in2="effect1_dropShadow_5_238" result="shape"/>
</filter>
<filter id="filter5_d_5_238" x="381.539" y="150.297" width="186.675" height="66.2652" filterUnits="userSpaceOnUse" color-interpolation-filters="sRGB">
<feFlood flood-opacity="0" result="BackgroundImageFix"/>
<feColorMatrix in="SourceAlpha" type="matrix" values="0 0 0 0 0 0 0 0 0 0 0 0 0 0 0 0 0 0 127 0" result="hardAlpha"/>
<feOffset dy="3.75761"/>
<feGaussianBlur stdDeviation="5.73035"/>
<feComposite in2="hardAlpha" operator="out"/>
<feColorMatrix type="matrix" values="0 0 0 0 0 0 0 0 0 0 0 0 0 0 0 0 0 0 0.06 0"/>
<feBlend mode="normal" in2="BackgroundImageFix" result="effect1_dropShadow_5_238"/>
<feBlend mode="normal" in="SourceGraphic" in2="effect1_dropShadow_5_238" result="shape"/>
</filter>
<clipPath id="clip0_5_238">
<rect width="25.0196" height="25.0196" fill="white" transform="translate(29.4531 136.107)"/>
</clipPath>
<clipPath id="clip1_5_238">
<rect width="26.3033" height="26.3033" fill="white" transform="translate(66.6044 378.52)"/>
</clipPath>
<clipPath id="clip2_5_238">
<rect width="27" height="27" fill="white" transform="translate(410.604 166.172)"/>
</clipPath>
</defs>
</svg>
