<svg width="70" height="70" viewBox="0 0 70 70" fill="none" xmlns="http://www.w3.org/2000/svg">
<g clip-path="url(#clip0_13_16)">
<rect width="70" height="70" rx="35" fill="#FFBFCB" fill-opacity="0.46"/>
<g clip-path="url(#clip1_13_16)">
<g filter="url(#filter0_d_13_16)">
<path d="M35.7666 40.1323L29.2484 32.9753L30.2783 32.0497L29.2354 32.9753C29.1067 32.8309 29.0094 32.6612 28.9498 32.4771C28.8902 32.293 28.8696 32.0985 28.8892 31.9061C28.9088 31.7136 28.9683 31.5273 29.0638 31.359C29.1593 31.1907 29.2887 31.0441 29.4439 30.9286L33.4722 27.2784C33.6167 27.1497 33.7864 27.0524 33.9704 26.9929C34.1545 26.9333 34.349 26.9126 34.5415 26.9322C34.734 26.9519 34.9203 27.0113 35.0885 27.1068C35.2568 27.2023 35.4034 27.3318 35.5189 27.487L42.0763 34.7483L35.7927 40.1193L35.7666 40.1323Z" fill="#FF4D6D"/>
<path d="M58.2937 65.0972L35.7406 40.1584L35.7667 40.1324L42.0763 34.7483L64.486 59.5045L58.3067 65.1102L58.2937 65.0972Z" fill="#FF6F89"/>
<path d="M70.6783 68.6301L66.637 72.2673C66.4928 72.3939 66.324 72.5023 66.1412 72.5607C65.9584 72.619 65.7656 72.6391 65.5747 72.6195C65.3838 72.5999 65.199 72.5412 65.0319 72.4469C64.8648 72.3527 64.7189 72.225 64.6033 72.0718L58.2937 65.0973L64.473 59.4916L70.8608 66.5834C70.9903 66.7271 71.1014 66.896 71.1621 67.0796C71.2227 67.2632 71.2445 67.4573 71.2261 67.6498C71.2077 67.8422 71.1496 68.0288 71.0553 68.1975C70.961 68.3663 70.8326 68.5136 70.6783 68.6301Z" fill="#FF6F89"/>
<path d="M40.6292 12.495C39.7029 14.0823 38.377 15.3992 36.7835 16.3147C38.3719 17.2324 39.693 18.5491 40.6162 20.1344C41.5394 18.5491 42.8605 17.2324 44.4489 16.3147C42.8605 15.3969 41.5524 14.0802 40.6292 12.495Z" fill="#414141"/>
<path d="M40.6293 25.74C39.2604 21.1512 34.5803 16.5102 31.595 16.5102C36.249 14.7242 39.091 10.9175 40.6162 6.3678C42.1415 10.9306 44.9834 14.7111 49.6375 16.5102C46.6521 16.5102 41.9981 21.1512 40.6293 25.74Z" fill="#FF718B"/>
<path d="M21.3092 19.2217C20.6415 20.3589 19.689 21.3025 18.5455 21.9593C19.6923 22.6234 20.6451 23.5763 21.3092 24.7231C21.9751 23.5811 22.9278 22.6328 24.0729 21.9724C22.9278 21.3119 21.9751 20.3637 21.3092 19.2217Z" fill="#414141"/>
<path d="M21.3092 28.7646C20.3184 25.4533 16.955 22.1159 14.804 22.1159C18.1544 20.8123 20.2011 18.0746 21.3092 14.8025C22.4042 18.0877 24.451 20.8253 27.8013 22.1029C25.6503 22.1029 22.2869 25.4663 21.3092 28.7646Z" fill="#FF6581"/>
<path d="M18.2717 38.203C17.8092 38.9932 17.1487 39.6493 16.3553 40.1063C17.1503 40.567 17.811 41.2277 18.2717 42.0227C18.7324 41.2277 19.393 40.567 20.188 40.1063C19.3947 39.6493 18.7342 38.9932 18.2717 38.203Z" fill="#414141"/>
<path d="M18.2717 44.8256C17.5938 42.5312 15.2603 40.1977 13.7611 40.1977C14.8487 39.7503 15.8201 39.0612 16.6016 38.1825C17.3831 37.3039 17.9543 36.2588 18.2717 35.1265C19.0409 37.4078 20.4619 39.3112 22.7823 40.2107C21.2962 40.2107 18.9627 42.5312 18.2717 44.8256Z" fill="#FF4D6D"/>
</g>
</g>
</g>
<defs>
<filter id="filter0_d_13_16" x="3.97111" y="-1.1972" width="74.8263" height="83.6139" filterUnits="userSpaceOnUse" color-interpolation-filters="sRGB">
<feFlood flood-opacity="0" result="BackgroundImageFix"/>
<feColorMatrix in="SourceAlpha" type="matrix" values="0 0 0 0 0 0 0 0 0 0 0 0 0 0 0 0 0 0 127 0" result="hardAlpha"/>
<feOffset dx="-1.1125" dy="1.1125"/>
<feGaussianBlur stdDeviation="4.33875"/>
<feComposite in2="hardAlpha" operator="out"/>
<feColorMatrix type="matrix" values="0 0 0 0 0 0 0 0 0 0 0 0 0 0 0 0 0 0 0.11 0"/>
<feBlend mode="normal" in2="BackgroundImageFix" result="effect1_dropShadow_13_16"/>
<feBlend mode="normal" in="SourceGraphic" in2="effect1_dropShadow_13_16" result="shape"/>
</filter>
<clipPath id="clip0_13_16">
<rect width="70" height="70" rx="35" fill="white"/>
</clipPath>
<clipPath id="clip1_13_16">
<rect width="89" height="89" fill="white" transform="translate(-2 -5)"/>
</clipPath>
</defs>
</svg>
